<?xml version="1.0" encoding="UTF-8"?>
<svg width="333px" height="75px" viewBox="0 0 333 75" version="1.1" xmlns="http://www.w3.org/2000/svg" xmlns:xlink="http://www.w3.org/1999/xlink">
    <title>Tsoft-Logo@1.5x</title>
    <g id="son-hali" stroke="none" stroke-width="1" fill="none" fill-rule="evenodd">
        <g id="Export-" transform="translate(-251, -249)" fill-rule="nonzero">
            <g id="Tsoft-Logo" transform="translate(251.3269, 249.3259)">
                <path d="M49.6873047,47.2585547 L49.6873047,37.3577344 L80.3083984,37.3577344 L80.3083984,47.2585547 L49.6873047,47.2585547 Z M108.710117,73.8989062 C104.967539,73.8989062 101.548184,73.4566016 98.4520508,72.5719922 C95.355918,71.6873828 92.634043,70.4625391 90.2864258,68.8974609 C87.9388086,67.3323828 85.9994727,65.5801758 84.468418,63.6408398 C82.9373633,61.7015039 81.865625,59.6771094 81.2532031,57.5676563 L92.8892188,53.9951953 C93.7738281,56.5129297 95.5090234,58.7244531 98.0948047,60.6297656 C100.680586,62.5350781 103.878789,63.5217578 107.689414,63.5898047 C112.112461,63.5898047 115.616875,62.6711719 118.202656,60.8339062 C120.788438,58.9966406 122.081328,56.5809766 122.081328,53.5869141 C122.081328,50.8650391 120.992578,48.6365039 118.815078,46.9013086 C116.637578,45.1661133 113.711563,43.8221875 110.037031,42.8695313 L101.258984,40.6239844 C97.9246875,39.739375 94.9136133,38.4464844 92.2257617,36.7453125 C89.5379102,35.0441406 87.428457,32.9006641 85.8974023,30.3148828 C84.3663477,27.7291016 83.6008203,24.6669922 83.6008203,21.1285547 C83.6008203,14.4599609 85.7783203,9.27138672 90.1333203,5.56283203 C94.4883203,1.85427734 100.714609,0 108.812188,0 C113.371328,0 117.369082,0.697480469 120.805449,2.09244141 C124.241816,3.48740234 127.082773,5.39271484 129.32832,7.80837891 C131.573867,10.224043 133.241016,12.9629297 134.329766,16.0250391 L122.897891,19.6995703 C121.877188,16.9776953 120.107969,14.7321484 117.590234,12.9629297 C115.0725,11.1937109 111.942344,10.3091016 108.199766,10.3091016 C104.321094,10.3091016 101.275996,11.2277344 99.0644727,13.065 C96.8529492,14.9022656 95.7471875,17.4540234 95.7471875,20.7202734 C95.7471875,23.3741016 96.6147852,25.4325195 98.3499805,26.8955273 C100.085176,28.3585352 102.449805,29.4642969 105.443867,30.2128125 L114.221914,32.3562891 C120.61832,33.9213672 125.585742,36.6092187 129.12418,40.4198437 C132.662617,44.2304688 134.431836,48.449375 134.431836,53.0765625 C134.431836,57.159375 133.445156,60.7658594 131.471797,63.8960156 C129.498438,67.0261719 126.589434,69.4758594 122.744785,71.2450781 C118.900137,73.0142969 114.221914,73.8989062 108.710117,73.8989062 Z M179.240703,73.8989062 C172.163828,73.8989062 165.903516,72.3338281 160.459766,69.2036719 C155.016016,66.0735156 150.746074,61.7185156 147.649941,56.1386719 C144.553809,50.5588281 143.005742,44.1624219 143.005742,36.9494531 C143.005742,29.7364844 144.553809,23.3570898 147.649941,17.8112695 C150.746074,12.2654492 154.981992,7.91044922 160.357695,4.74626953 C165.733398,1.58208984 171.925664,0 178.934492,0 C186.011367,0 192.254668,1.58208984 197.664395,4.74626953 C203.074121,7.91044922 207.293027,12.2654492 210.321113,17.8112695 C213.349199,23.3570898 214.863242,29.7364844 214.863242,36.9494531 C214.863242,44.1624219 213.349199,50.5588281 210.321113,56.1386719 C207.293027,61.7185156 203.108145,66.0735156 197.766465,69.2036719 C192.424785,72.3338281 186.249531,73.8989062 179.240703,73.8989062 Z M179.240703,63.0794531 C183.867891,63.0794531 187.950703,61.9566797 191.489141,59.7111328 C195.027578,57.4655859 197.800488,54.3864648 199.807871,50.4737695 C201.815254,46.5610742 202.818945,42.0529687 202.818945,36.9494531 C202.818945,31.9139844 201.798242,27.4228906 199.756836,23.4761719 C197.71543,19.5294531 194.908496,16.450332 191.336035,14.2388086 C187.763574,12.0272852 183.629727,10.9215234 178.934492,10.9215234 C174.307305,10.9215234 170.20748,12.0272852 166.63502,14.2388086 C163.062559,16.450332 160.238613,19.5124414 158.163184,23.4251367 C156.087754,27.337832 155.050039,31.8459375 155.050039,36.9494531 C155.050039,42.0529687 156.087754,46.5610742 158.163184,50.4737695 C160.238613,54.3864648 163.096582,57.4655859 166.73709,59.7111328 C170.377598,61.9566797 174.545469,63.0794531 179.240703,63.0794531 Z M227.417891,72.6740625 L227.417891,1.22484375 L271.818477,1.22484375 L271.818477,12.0442969 L239.258047,12.0442969 L239.258047,32.0500781 L267.123242,32.0500781 L267.123242,42.8695313 L239.258047,42.8695313 L239.258047,72.6740625 L227.417891,72.6740625 Z M298.356758,72.6740625 L298.356758,12.0442969 L276.411641,12.0442969 L276.411641,1.22484375 L332.142031,1.22484375 L332.142031,12.0442969 L310.196914,12.0442969 L310.196914,72.6740625 L298.356758,72.6740625 Z" id="Shape" fill="#3B3735"></path>
                <polygon id="Path" fill="#FF5D00" points="21.9451172 72.6740625 21.9451172 12.0442969 0 12.0442969 0 1.22484375 55.7303906 1.22484375 55.7303906 12.0442969 33.7852734 12.0442969 33.7852734 72.6740625"></polygon>
            </g>
        </g>
    </g>
</svg>